<mxfile host="app.diagrams.net" modified="2023-09-13T17:54:59.747Z" agent="Mozilla/5.0 (Macintosh; Intel Mac OS X 10_15_7) AppleWebKit/537.36 (KHTML, like Gecko) Chrome/116.0.0.0 Safari/537.36 Edg/116.0.1938.54" version="21.6.8" etag="zhokA_tZTk-Cj220Ukz7" type="github">
  <diagram name="Page-1" id="fEA3D3u9Bvl39R5_udzE">
    <mxGraphModel>
      <root>
        <mxCell id="0" />
        <mxCell id="1" parent="0" />
      </root>
    </mxGraphModel>
  </diagram>
</mxfile>
